<?xml version="1.0" standalone="no"?><!DOCTYPE svg PUBLIC "-//W3C//DTD SVG 1.1//EN" "http://www.w3.org/Graphics/SVG/1.1/DTD/svg11.dtd"><svg t="1648821199815" class="icon" viewBox="0 0 1024 1024" version="1.1" xmlns="http://www.w3.org/2000/svg" p-id="8140" width="300" height="300" xmlns:xlink="http://www.w3.org/1999/xlink"><defs><style type="text/css"></style></defs><path d="M329.255385 24.418462H827.076923a157.538462 157.538462 0 0 1 157.538462 157.538461v620.701539c0 11.579077-1.260308 22.843077-3.623385 33.71323l0.039385-3.780923c0-104.054154-85.070769-188.258462-189.755077-188.258461a189.676308 189.676308 0 0 0-181.051077 131.741538V771.938462H247.059692a39.384615 39.384615 0 0 1-39.384615-39.384616v-163.524923a39.384615 39.384615 0 0 1 39.384615-39.384615h479.940923v-78.769231H247.059692a118.153846 118.153846 0 0 0-118.153846 118.153846V732.553846a118.153846 118.153846 0 0 0 118.153846 118.153846h355.328a186.840615 186.840615 0 0 0 49.348923 109.489231H196.923077a157.538462 157.538462 0 0 1-157.538462-157.538461V266.870154A190.030769 190.030769 0 0 0 189.755077 340.283077 189.755077 189.755077 0 0 0 369.467077 212.676923h407.473231a39.384615 39.384615 0 0 1 39.384615 39.384615v159.428924a39.384615 39.384615 0 0 1-39.384615 39.384615l-49.939693 0.157538v78.769231l49.939693-0.157538a118.153846 118.153846 0 0 0 118.153846-118.153846V252.061538a118.153846 118.153846 0 0 0-118.153846-118.153846H378.643692A186.840615 186.840615 0 0 0 329.294769 24.418462zM189.794462 261.513846C128.393846 261.513846 78.769231 212.401231 78.769231 152.024615c0-60.376615 49.624615-109.489231 110.985846-109.48923 61.400615 0 110.985846 49.112615 110.985846 109.48923 0 60.376615-49.624615 109.489231-110.985846 109.489231z m601.52123 680.566154c-61.400615 0-110.985846-49.112615-110.985846-109.489231 0-60.376615 49.624615-109.489231 110.985846-109.489231 61.400615 0 110.985846 49.112615 110.985846 109.489231 0 60.376615-49.624615 109.489231-110.985846 109.489231z" p-id="8141" fill="#FFFFFF"></path></svg>